# xmcd
# 
# Track frame offsets:
#     150
#     24971
#     42157
#     70912
#     86282
#     105850
#     128716
#     141972
# 
# Disc length: 2295
# 
# Revision: 0
# Processed by: cddbd v1.5.2PL0 Copyright (c) Steve Scherf et al.
# Submitted via: fre:ac v1.0.17
# 
DISCID=5a08f508
DTITLE=1000Mods - Vultures
DYEAR=2014
DGENRE=Psychedelic Rock
TTITLE0=Claws
TTITLE1=Big Beautiful
TTITLE2=She
TTITLE3=Horses Green
TTITLE4=Low
TTITLE5=Vultures
TTITLE6=Modesty
TTITLE7=Reverb of the new world 
EXTD=
EXTT0=
EXTT1=
EXTT2=
EXTT3=
EXTT4=
EXTT5=
EXTT6=
EXTT7=
PLAYORDER=
